<svg viewBox="0 0 5120 5120" xmlns="http://www.w3.org/2000/svg"><g id="l1fLllUgxXOSt7NAOOhouK2" fill="rgb(255,183,77)" style="transform: none;"><g><path id="p7Je1LdYZ" d="M1445 2860 c-3 -5 -15 -10 -26 -10 -11 0 -54 -33 -97 -74 -42 -40 -92 -87 -111 -104 -18 -16 -32 -35 -30 -40 2 -6 47 -55 99 -110 52 -55 109 -116 127 -136 17 -20 33 -36 36 -36 3 0 38 32 78 70 77 73 89 80 89 54 0 -31 44 -9 81 40 52 69 62 158 27 249 -6 15 -14 27 -19 27 -5 0 -9 9 -9 21 0 12 -8 23 -20 26 -11 3 -20 12 -20 19 0 8 -9 14 -20 14 -11 0 -20 -7 -20 -15 0 -12 -7 -14 -27 -9 -16 4 -32 11 -37 15 -14 12 -93 11 -101 -1z"></path><path id="pigkVvnPS" d="M2057 2429 c-18 -21 -27 -42 -27 -65 0 -31 3 -34 30 -34 42 0 90 51 90 96 0 32 -2 34 -33 34 -24 0 -40 -8 -60 -31z"></path><path id="pqdu1QSpH" d="M2022 1399 c-68 -12 -92 -25 -92 -50 0 -12 -30 -50 -73 -92 -40 -40 -81 -90 -91 -112 -11 -22 -23 -49 -29 -60 -5 -10 -12 -70 -15 -132 -4 -104 -3 -113 13 -113 10 0 27 8 38 17 19 18 19 17 12 -60 l-7 -78 54 -54 c61 -63 80 -67 203 -40 39 8 106 22 150 30 44 9 114 23 155 32 41 8 91 18 110 22 l35 7 5 74 c3 44 8 70 13 63 5 -7 18 -13 29 -13 20 0 21 3 14 111 -4 61 -11 119 -16 128 -5 9 -19 38 -32 65 -22 48 -99 135 -146 166 -12 8 -22 24 -22 36 0 17 -10 26 -47 38 -59 20 -191 28 -261 15z"></path><path id="ptdv1MyMN" d="M3290 759 c-25 -4 -85 -15 -135 -23 -49 -8 -99 -17 -110 -20 -11 -3 -32 -7 -48 -11 -27 -5 -27 -6 -21 -63 4 -31 10 -61 14 -67 4 -5 10 -35 13 -65 4 -30 11 -56 17 -58 5 -2 10 -9 10 -16 0 -17 57 -68 99 -89 37 -18 121 -23 121 -7 0 6 8 10 19 10 22 0 101 67 101 85 0 8 6 15 13 18 15 5 14 202 -2 220 -5 7 -11 30 -13 52 -3 45 -9 47 -78 34z"></path></g></g><g id="l5DPTahu56rPccyk6BXDZAx" fill="rgb(255,202,40)" style="transform: none;"><g><path id="pUpaNHJur" d="M2090 2462 c0 -5 -26 -36 -57 -70 -32 -33 -77 -82 -99 -109 -62 -72 -117 -136 -131 -151 -7 -7 -13 -30 -13 -50 0 -33 9 -46 78 -115 l77 -77 190 0 190 0 78 78 c104 104 104 116 -2 238 -62 71 -128 148 -158 184 -62 75 -69 80 -112 80 -22 0 -41 -4 -41 -8z"></path></g></g><g id="l4TJV7eQEU9VUGrWFZFqey8" fill="rgb(66,165,245)" style="transform: none;"><g><path id="p1FGwiIMK8" d="M1580 4781 c0 -5 -12 -12 -27 -16 -43 -10 -100 -80 -112 -136 -10 -44 -8 -82 13 -254 16 -136 40 -321 71 -570 9 -66 20 -160 26 -210 9 -87 28 -239 48 -395 5 -41 10 -87 10 -102 1 -21 6 -28 21 -28 11 0 118 59 237 131 120 72 228 136 240 141 18 9 56 -11 256 -131 220 -132 238 -141 286 -141 28 0 51 3 51 8 2 24 49 408 69 562 6 41 10 98 11 127 0 44 -3 51 -16 46 -14 -5 -15 5 -9 98 4 57 11 109 15 114 5 6 11 61 15 123 4 61 11 112 15 112 4 0 11 54 15 120 4 66 11 120 16 120 12 0 12 127 0 134 -5 3 -12 17 -15 31 -8 32 -69 93 -101 101 -14 3 -28 10 -31 15 -7 12 -104 12 -104 0 0 -5 -12 -11 -27 -14 -56 -11 -116 -85 -128 -157 -4 -25 -11 -49 -15 -55 -5 -5 -11 -36 -15 -68 -4 -31 -11 -59 -15 -62 -5 -3 -11 -32 -15 -65 -4 -33 -11 -62 -15 -65 -4 -3 -11 -32 -15 -65 -4 -33 -11 -62 -15 -65 -4 -3 -11 -32 -15 -65 -4 -33 -11 -62 -15 -65 -4 -3 -11 -32 -15 -65 -4 -33 -10 -60 -15 -60 -4 0 -11 -29 -15 -65 -3 -36 -10 -67 -15 -70 -4 -2 -11 -31 -15 -62 -4 -32 -10 -62 -15 -68 -4 -5 -11 -32 -14 -60 -7 -44 -27 -129 -42 -175 -8 -23 -34 17 -34 51 0 15 -4 30 -9 34 -5 3 -13 34 -16 70 -4 36 -11 65 -15 65 -5 0 -11 27 -15 60 -4 33 -11 62 -15 65 -4 3 -11 32 -15 65 -4 33 -11 62 -15 65 -4 3 -11 32 -15 65 -4 33 -11 62 -15 65 -4 3 -11 32 -15 65 -4 33 -11 62 -15 65 -4 3 -11 32 -15 65 -4 33 -11 62 -15 65 -4 3 -11 32 -15 65 -4 33 -10 62 -15 65 -4 3 -11 31 -15 62 -4 32 -10 63 -15 68 -4 6 -11 32 -15 59 -3 27 -17 65 -29 85 -28 44 -84 91 -108 91 -10 0 -18 5 -18 10 0 6 -25 10 -55 10 -30 0 -55 -4 -55 -9z"></path><path id="pDxAcaoke" d="M1099 2568 c-52 -51 -135 -129 -183 -173 -117 -106 -140 -142 -140 -221 0 -68 22 -114 77 -160 79 -66 132 -111 156 -134 15 -14 49 -43 76 -65 28 -22 57 -47 67 -55 9 -8 36 -32 60 -52 24 -20 63 -54 88 -75 24 -21 49 -41 55 -46 5 -4 21 -16 34 -27 13 -11 27 -20 31 -20 4 0 12 21 18 48 6 26 18 74 27 107 9 33 21 80 26 105 5 25 14 53 20 63 5 10 12 48 15 85 2 37 2 61 -2 55 -10 -22 -36 -14 -70 20 -18 17 -41 39 -52 47 -55 42 -122 104 -122 112 0 10 51 62 139 140 34 31 50 52 45 60 -17 28 -254 278 -264 278 -3 0 -49 -42 -101 -92z"></path><path id="p11LcgC6c5" d="M2737 1953 c-3 -16 -13 -68 -22 -118 -9 -49 -24 -124 -32 -165 -18 -98 -43 -242 -43 -257 0 -7 8 -13 18 -13 10 0 37 -26 62 -61 25 -33 50 -66 55 -72 6 -7 22 -28 35 -47 24 -34 34 -47 55 -73 31 -37 44 -70 50 -133 4 -38 11 -73 15 -79 4 -5 11 -47 15 -93 4 -45 11 -85 16 -88 5 -3 9 -23 9 -45 0 -44 3 -45 80 -28 43 9 172 31 270 47 l45 7 -4 55 c-1 30 -6 60 -10 65 -6 10 -19 91 -41 250 -6 44 -15 89 -20 100 -5 11 -12 32 -17 46 -4 14 -18 39 -30 55 -117 150 -283 379 -283 390 0 8 7 17 15 20 8 4 15 10 15 14 0 4 -41 62 -91 129 -84 112 -93 121 -124 121 -28 0 -34 -4 -38 -27z"></path></g></g><g id="l5Xdvgo825DtMPesJQpciQl" fill="rgb(255,152,0)" style="transform: none;"><g><path id="p85En9N0S" d="M1613 2838 c1 -13 11 -25 22 -29 13 -3 20 -13 19 -27 0 -12 5 -22 12 -22 7 0 18 -16 25 -35 16 -43 39 -46 39 -6 0 39 -27 101 -44 101 -8 0 -16 9 -19 20 -3 13 -14 20 -31 20 -21 0 -25 -4 -23 -22z"></path><path id="plV7TPkAL" d="M2030 1720 c0 -5 -7 -10 -17 -10 -28 0 -82 -49 -103 -95 -15 -33 -20 -65 -20 -129 0 -79 2 -86 20 -86 16 0 20 -7 20 -34 l0 -34 58 20 c71 25 197 27 261 4 63 -23 79 -21 83 12 2 20 9 28 27 30 24 4 24 4 17 100 -4 53 -11 101 -16 106 -6 6 -10 16 -10 22 0 19 -65 84 -83 84 -9 0 -19 5 -22 10 -3 6 -52 10 -111 10 -63 0 -104 -4 -104 -10z"></path></g></g><g id="l1u2NdQRsOn0qVrLNG3PSxw" fill="rgb(30,136,229)" style="transform: none;"><g><path id="p11laNWFAS" d="M2114 3391 c-12 -4 -130 -71 -262 -151 l-242 -145 0 -122 0 -123 540 0 540 0 0 140 c0 87 -4 140 -10 140 -5 0 -10 -7 -10 -15 0 -33 -52 -9 -288 133 -178 107 -253 146 -268 143z"></path></g></g><g id="l4XdOjDbw9ulfvI0xr29qed" fill="rgb(110,109,148)" style="transform: none;"><g></g></g><g id="lYijJUR4ywQaF2vwlal3WZ" fill="rgb(185,84,71)" style="transform: none;"><g></g></g><g id="l7GI0FjFXJ897ChaT75ubH8" fill="rgb(255,61,0)" style="transform: none;"><g><path id="pQjgQKqet" d="M2660 2892 c0 -4 -10 -8 -22 -8 -13 0 -249 -1 -525 -2 -478 -2 -503 -3 -503 -20 0 -10 14 -31 31 -48 42 -39 61 -88 61 -156 0 -58 -13 -87 -66 -146 -13 -15 -25 -50 -33 -95 -6 -40 -18 -106 -27 -147 -8 -41 -22 -112 -30 -158 -18 -100 -25 -122 -36 -122 -4 0 -11 -19 -15 -42 -4 -23 -11 -49 -16 -58 -4 -8 -13 -35 -18 -60 -5 -25 -17 -71 -25 -103 -47 -172 -46 -169 -23 -188 12 -10 51 -32 86 -50 102 -51 198 -73 344 -82 l77 -4 0 72 c0 39 3 75 8 79 4 4 7 11 8 14 5 43 71 112 107 112 10 0 17 3 17 8 0 9 148 8 157 -1 3 -4 13 -7 21 -7 18 0 82 -66 82 -85 0 -8 5 -17 11 -21 7 -4 9 -21 5 -45 -4 -24 -2 -39 4 -39 5 0 10 -20 10 -45 l0 -45 160 0 c182 0 160 -13 179 105 6 33 17 94 24 135 8 41 23 116 32 165 9 50 19 102 22 118 4 22 8 25 19 16 12 -9 14 -3 14 35 0 25 -4 46 -9 46 -4 0 -12 32 -15 70 -4 39 -11 70 -16 70 -4 0 -11 32 -15 70 -4 39 -11 70 -15 70 -4 0 -11 32 -15 70 -4 39 -11 70 -16 70 -5 0 -9 94 -9 214 0 118 -3 221 -6 230 -6 16 -24 22 -24 8z m-496 -475 c11 -13 34 -38 49 -57 30 -36 96 -113 158 -184 19 -23 45 -54 57 -70 l23 -30 -78 -78 -78 -78 -160 0 -160 0 -77 77 c-43 43 -78 81 -78 85 0 3 6 13 13 20 7 7 37 42 67 77 30 36 66 77 80 92 14 15 32 36 40 47 39 51 104 122 113 122 5 0 19 -10 31 -23z"></path></g></g><g id="l7Fui5hi5Y3zvQeaPiY2YzG" fill="rgb(183,28,28)" style="transform: none;"><g><path id="p4LtsdLaH" d="M3126 3932 c-3 -5 -38 -12 -78 -16 -40 -4 -77 -11 -82 -16 -6 -6 -17 -10 -25 -10 -9 -1 -34 -9 -56 -20 -22 -11 -46 -19 -52 -20 -7 0 -13 -4 -13 -9 0 -5 -15 -14 -33 -20 l-34 -11 -12 -108 c-13 -116 -33 -281 -57 -462 -8 -63 -18 -169 -21 -236 l-5 -121 -24 5 c-14 2 -24 0 -24 -7 0 -6 9 -11 19 -11 10 0 22 -7 25 -16 3 -9 6 -112 6 -230 0 -138 4 -214 10 -214 6 0 10 -12 10 -27 0 -49 12 -113 21 -113 5 0 9 -12 9 -27 0 -51 12 -113 22 -113 6 0 8 -11 6 -25 -3 -14 -1 -28 3 -31 5 -3 9 -23 9 -45 0 -21 5 -39 10 -39 6 0 10 -7 10 -15 0 -9 41 -70 92 -138 51 -67 93 -124 94 -125 4 -6 104 52 104 61 0 4 6 7 13 7 7 0 36 16 66 35 29 19 57 35 62 35 5 0 9 4 9 8 0 4 12 13 28 20 15 6 50 25 77 42 152 92 376 180 535 210 97 18 246 23 330 12 114 -16 202 -32 235 -42 126 -40 173 -56 195 -67 14 -7 31 -13 38 -13 6 0 12 -4 12 -9 0 -5 12 -12 26 -15 14 -4 43 -18 65 -32 l39 -24 0 54 c0 30 -4 57 -9 60 -4 3 -11 52 -15 108 -4 56 -11 107 -16 113 -4 5 -11 40 -15 78 -4 37 -11 70 -15 72 -5 3 -12 30 -15 60 -4 31 -11 57 -15 60 -5 3 -11 24 -15 48 -4 23 -11 47 -15 52 -4 6 -11 26 -15 45 -4 19 -11 40 -15 45 -4 6 -11 25 -15 43 -3 17 -11 32 -16 32 -5 0 -9 7 -9 15 0 30 -114 262 -179 365 -18 28 -88 127 -129 180 -67 88 -328 330 -355 330 -3 0 -29 16 -58 35 -30 19 -59 35 -66 35 -7 0 -13 4 -13 9 0 5 -13 12 -30 16 -16 4 -30 10 -30 15 0 4 -16 11 -35 14 -19 4 -35 11 -35 16 0 6 -10 10 -22 10 -13 0 -35 6 -50 14 -14 8 -46 17 -69 21 -24 4 -50 11 -59 16 -33 19 -324 46 -334 31z"></path></g></g><g id="l7l9vdm2PfLFaZqm7rNtvhh" fill="rgb(66,66,66)" style="transform: none;"><g><path id="p19UMddMwD" d="M1760 905 l-43 -44 5 -115 c3 -64 10 -121 15 -128 6 -7 13 -24 16 -38 12 -49 119 -140 164 -140 7 0 37 -25 67 -55 l54 -55 80 0 c45 0 83 4 86 9 3 5 26 12 51 15 25 4 45 11 45 16 0 4 12 11 26 14 30 8 40 15 103 76 25 25 56 68 69 95 13 28 27 57 32 66 5 9 12 67 16 129 l7 111 -44 45 -44 45 -5 -103 -5 -102 -35 -7 c-19 -4 -71 -15 -115 -24 -44 -9 -111 -22 -150 -30 -38 -7 -107 -21 -152 -31 l-82 -17 -52 50 -52 50 2 101 c1 55 -2 103 -7 106 -5 3 -28 -15 -52 -39z"></path></g></g></svg>
