<?xml version="1.0" standalone="no"?>
<!DOCTYPE svg PUBLIC "-//W3C//DTD SVG 20010904//EN"
 "http://www.w3.org/TR/2001/REC-SVG-20010904/DTD/svg10.dtd">
<svg version="1.0" xmlns="http://www.w3.org/2000/svg"
 width="344.000000pt" height="344.000000pt" viewBox="0 0 344.000000 344.000000"
 preserveAspectRatio="xMidYMid meet">
<metadata>
Created by potrace 1.14, written by Peter Selinger 2001-2017
</metadata>
<g transform="translate(0.000000,344.000000) scale(0.100000,-0.100000)"
fill="#000000" stroke="none">
<path d="M1326 3191 c-22 -21 -56 -43 -74 -51 -76 -30 -106 -108 -105 -275 1
-153 21 -213 94 -279 27 -24 49 -50 49 -58 0 -11 -25 -18 -90 -26 -50 -7 -121
-24 -157 -37 -69 -26 -90 -41 -264 -190 -58 -49 -129 -110 -158 -135 -29 -25
-57 -47 -62 -48 -5 -2 -18 -21 -29 -43 -34 -65 -24 -127 28 -177 364 -348 398
-375 445 -367 12 3 33 7 47 10 l25 6 -1 -88 c-2 -81 -8 -156 -19 -240 -10 -68
-14 -100 -21 -158 -3 -33 -8 -68 -10 -78 -2 -10 -6 -45 -9 -78 -4 -33 -8 -69
-10 -80 -2 -11 -7 -47 -10 -80 -4 -33 -8 -68 -10 -78 -2 -9 -6 -44 -10 -76 -4
-33 -8 -71 -10 -85 -15 -105 -16 -139 -2 -172 22 -51 75 -89 128 -89 118 -2
143 39 203 326 3 11 17 72 31 135 15 63 28 123 30 133 2 10 7 27 10 37 3 10 8
29 10 42 14 74 59 251 61 243 2 -5 28 -120 59 -255 31 -135 62 -272 70 -305 8
-33 23 -100 35 -150 27 -119 44 -156 85 -183 42 -29 112 -32 158 -5 36 21 77
93 72 126 -2 12 -6 49 -9 82 -3 33 -8 69 -10 80 -2 11 -7 49 -11 85 -4 36 -9
72 -10 80 -2 8 -6 49 -10 90 -4 41 -9 78 -12 83 -7 12 8 8 41 -12 17 -11 67
-30 111 -42 68 -18 96 -21 185 -16 400 22 732 302 915 772 25 64 52 147 60
184 2 9 10 45 19 81 16 73 22 108 31 195 3 33 8 70 10 82 3 12 1 24 -4 27 -5
3 -46 -12 -92 -33 -140 -66 -231 -85 -399 -86 -159 0 -211 10 -345 66 -75 31
-368 200 -380 219 -3 6 15 38 42 72 55 72 49 64 112 148 45 61 62 94 66 130 4
39 19 131 40 245 9 44 18 114 21 155 4 64 2 80 -15 107 -39 62 -117 83 -182
50 -47 -24 -74 -62 -83 -117 -40 -243 -67 -386 -78 -400 -7 -10 -40 -55 -73
-99 l-60 -80 -112 -1 c-68 0 -113 4 -113 10 0 5 23 33 51 61 83 83 94 118 94
289 0 127 -3 151 -21 191 -48 102 -137 156 -276 164 -46 3 -54 0 -92 -34z
m-306 -1121 c0 -26 0 -24 10 -61 5 -18 12 -48 15 -68 3 -20 11 -64 19 -98 7
-35 11 -63 10 -63 -2 0 -49 44 -105 98 l-101 97 68 58 c38 31 72 57 76 57 4 0
8 -9 8 -20z"/>
</g>
</svg>
